<?xml version="1.0" encoding="utf-8"?>
<!-- Generator: Adobe Illustrator 19.0.0, SVG Export Plug-In . SVG Version: 6.00 Build 0)  -->
<svg version="1.1" id="Layer_1" xmlns="http://www.w3.org/2000/svg" xmlns:xlink="http://www.w3.org/1999/xlink" x="0px" y="0px"
	 viewBox="337.5 311.7 396.8 171.3" style="enable-background:new 337.5 311.7 396.8 171.3;" xml:space="preserve">
<style type="text/css">
	.st0{fill:#FFFFFF;}
	.st1{fill:#E69637;}
	.st2{fill:#AA78AA;}
	.st3{fill:#005A96;}
	.st4{fill:#66913D;}
</style>
<g>
	<g>
		<path class="st0" d="M526.8,329.2v0.2c0,0.4,0,0.9-0.1,1.3c-0.1,0.7-0.1,1.3-0.3,2c-0.1,0.6-0.3,1.1-0.5,1.7
			c-2.2,7.1-8.8,12.2-16.7,12.2c-2.3,0-10.5-0.7-12.6-0.8c-1.7-0.2-3.2-0.1-4.8-0.1c-21.8,0.4-38.7,20.8-39.9,22.2h-0.1
			c-0.7-0.3-1.4-0.6-2.1-0.8l-0.2-0.1c-0.1,0-0.2-0.1-0.3-0.1v-0.1c0-0.2,0.1-0.3,0.1-0.5c0.9-3.7,1.6-7.7,3.2-11.4
			c0.8-1.9,1.7-3.9,2.6-5.8c0.4-1,0.9-1.9,1.5-2.8l1.7-2.8c2.2-3.9,25.1-31.8,50.9-31.8c9.2,0,16.8,7.1,17.4,16.2c0,0.2,0,0.5,0,0.8
			C526.8,328.9,526.8,329.1,526.8,329.2z"/>
		<path class="st1" d="M464.6,448.8c-0.3,0.3-0.6,0.6-0.9,0.9c-0.5,0.5-1,1.1-1.4,1.7c-3.1-1.8-6.4-3.6-9.3-5.9
			c-1.6-1.3-3.2-2.7-4.8-4.1c-0.8-0.7-1.6-1.5-2.3-2.3l-2.2-2.5c-3-3.2-23.2-33.1-15.8-57.9c2.6-8.8,11.7-14,20.5-12
			c0.2,0,0.5,0.1,0.7,0.2c0.1,0,0.1,0,0.2,0s0.2,0,0.3,0.1l0.2,0.1c0.7,0.2,1.4,0.5,2.1,0.8h0.1c0.3,0.1,0.6,0.3,0.9,0.4
			c7.1,3.9,10.8,12.3,8.4,20.4c-0.7,2.2-3.7,9.9-4.4,11.8c-0.6,1.5-1,3-1.5,4.6C450.1,424.2,461.6,444.1,464.6,448.8z"/>
		<path class="st2" d="M545.7,462.7c-2.3,2.4-4.7,4.8-7.5,6.8c-1.7,1.2-3.5,2.4-5.2,3.6c-0.9,0.7-1.8,1.2-2.8,1.6l-2.9,1.5
			c-3.9,2.1-38,13.9-60,0.4c-7.8-4.8-10.5-14.9-6.3-22.9c0.1-0.2,0.2-0.4,0.4-0.7c0.1-0.2,0.1-0.3,0.2-0.4l0.1-0.2
			c0.2-0.3,0.4-0.6,0.6-0.9c0.4-0.6,0.9-1.2,1.4-1.7c0.3-0.3,0.6-0.6,0.9-0.9c5.6-5.1,14.1-6.1,20.9-2c2,1.2,8.6,6.1,10.3,7.3
			c1.3,1,2.7,1.8,4,2.6c16.8,9.9,38.6,4.2,44.3,2.4c0.2,0.7,0.5,1.4,0.8,2.1C545.2,461.7,545.4,462.2,545.7,462.7z"/>
		<path class="st3" d="M571.1,468.2c-7.4,5.4-17.8,4-23.6-2.9c-0.2-0.2-0.3-0.4-0.5-0.6c-0.1-0.1-0.2-0.2-0.3-0.4l-0.1-0.2
			c-0.3-0.5-0.6-1-0.9-1.4c-0.3-0.5-0.5-1-0.8-1.5c-0.3-0.7-0.6-1.4-0.8-2.1c-2.1-6.9,0.3-14.8,6.5-19.2c1.9-1.4,8.9-5.6,10.7-6.7
			c1.5-0.8,2.7-1.8,4-2.7c14.9-11.2,18.4-32.2,19.1-39.1c0.8-0.2,1.7-0.4,2.5-0.7l0.2-0.1c0.2,0,0.3-0.1,0.5-0.2
			c0.2-0.1,0.4-0.1,0.6-0.3l0,0c1.3,3.2,2.8,6.4,3.6,9.9c0.5,2,0.9,4.1,1.3,6.2c0.3,1.1,0.4,2.1,0.4,3.2l0.2,3.2
			C594.2,417.1,592.1,453.1,571.1,468.2z"/>
		<path class="st4" d="M588.3,390.1L588.3,390.1L588.3,390.1c-0.3,0.2-0.5,0.2-0.7,0.3c-0.1,0.1-0.3,0.2-0.5,0.2l-0.1,0.1
			c-0.8,0.3-1.7,0.5-2.5,0.7c-0.2,0.1-0.5,0.1-0.8,0.1c-8,1.2-16-3.3-19-11.2c-0.8-2.2-3-10.1-3.7-12.1c-0.4-1.6-1-3-1.6-4.6
			c-7.2-18.2-28.1-27.2-33.5-29.2c0.2-0.5,0.3-1.1,0.5-1.7c0.1-0.6,0.2-1.3,0.3-2c3.4-0.5,6.9-1,10.5-0.8c2.1,0,4.2,0.2,6.3,0.4
			c1.1,0,2.1,0.2,3.2,0.4l3.2,0.7c4.4,0.7,38.5,12.4,47.5,36.7C600.6,376.8,596.6,386.4,588.3,390.1z"/>
	</g>
	<g>
		<g>
			<path class="st0" d="M337.5,367.3h25c6.7,0,11.9,1.6,15.6,4.9s5.6,7.4,5.6,12.4c0,7.3-4.2,12.2-12.7,14.5
				c4.3,0.7,7.7,2.6,10.3,5.7c2.6,3.1,3.9,6.7,3.9,10.7c0,5-1.9,9.2-5.8,12.4c-3.9,3.2-9.1,4.9-15.6,4.9h-26.2L337.5,367.3
				L337.5,367.3z M348.2,375.7v19.4h13.3c3.5,0,6.3-0.9,8.2-2.5c2-1.7,3-4.1,3-7.1s-1-5.4-3-7.2c-2-1.7-4.7-2.6-8.2-2.6L348.2,375.7
				L348.2,375.7z M348.2,424.4h14.5c3.6,0,6.5-0.9,8.6-2.7c2.1-1.8,3.1-4.4,3.1-7.6s-1.1-5.8-3.3-7.7s-5.1-2.9-8.8-2.9h-14.1V424.4z
				"/>
			<path class="st0" d="M412,367.1c0,1.9-0.7,3.6-2,4.9s-2.9,2-4.9,2c-1.9,0-3.5-0.7-4.9-2c-1.3-1.3-2-3-2-4.9s0.7-3.6,2-4.9
				s2.9-2,4.9-2c1.9,0,3.5,0.7,4.9,2C411.3,363.5,412,365.2,412,367.1z M399.7,432.8v-51.9h10.7v51.9H399.7z"/>
		</g>
		<path class="st0" d="M491.3,423.9c-6.5-6.3-9.7-14.3-9.7-24s3.2-17.7,9.7-24s14.4-9.5,23.8-9.5c7,0,13.2,1.7,18.6,5.1
			c5.4,3.4,9.4,8.3,11.8,14.6h-12.9c-3.5-6.6-9.4-9.9-17.5-9.9c-6.6,0-12,2.2-16.2,6.5s-6.3,10.1-6.3,17.2s2.1,12.9,6.3,17.2
			c4.2,4.3,9.6,6.5,16.2,6.5c8.2,0,14-3.3,17.5-9.9h12.9c-2.5,6.3-6.4,11.1-11.8,14.5c-5.4,3.4-11.6,5.1-18.6,5.1
			C505.7,433.4,497.8,430.2,491.3,423.9z"/>
		<g>
			<path class="st0" d="M611.3,432.8v-65.5H622v65.5H611.3z"/>
			<path class="st0" d="M649.8,432.8H639v-65.5h10.7v29.9l25.4-29.9h14l-29.6,32.9l29.6,32.6H675l-25.4-29.3v29.3H649.8z"/>
			<path class="st0" d="M701.5,367.3h10.7v57.3h22.1v8.2h-32.9v-65.5H701.5z"/>
		</g>
	</g>
</g>
</svg>
